<svg width="48" height="48" viewBox="0 0 48 48" fill="none" xmlns="http://www.w3.org/2000/svg">
<rect width="48" height="48" fill="white"/>
<path d="M28.5 41C28.5 42.004 27.5687 43.3788 24.9723 44.5905C22.4976 45.7453 18.9735 46.5 15 46.5C11.0265 46.5 7.50237 45.7453 5.02773 44.5905C2.43129 43.3788 1.5 42.004 1.5 41C1.5 39.996 2.43129 38.6212 5.02773 37.4095C7.50237 36.2547 11.0265 35.5 15 35.5C18.9735 35.5 22.4976 36.2547 24.9723 37.4095C27.5687 38.6212 28.5 39.996 28.5 41Z" stroke="#152C5B" stroke-width="3"/>
<path d="M27.5 14.0488C27.5 17.6686 26.0002 24.5809 23.5128 30.6121C22.2741 33.6156 20.8317 36.2967 19.2853 38.1996C17.7011 40.1491 16.2443 41 15 41C13.7557 41 12.2989 40.1491 10.7147 38.1996C9.16832 36.2967 7.72593 33.6156 6.4872 30.6121C3.99979 24.5809 2.5 17.6686 2.5 14.0488C2.5 7.11336 8.10136 1.5 15 1.5C21.8986 1.5 27.5 7.11336 27.5 14.0488Z" fill="white" stroke="#152C5B" stroke-width="3"/>
<path d="M19.5 14C19.5 16.4853 17.4853 18.5 15 18.5C12.5147 18.5 10.5 16.4853 10.5 14C10.5 11.5147 12.5147 9.5 15 9.5C17.4853 9.5 19.5 11.5147 19.5 14Z" stroke="#FF498B" stroke-width="3"/>
</svg>
