<svg width="48" height="48" viewBox="0 0 48 48" fill="none" xmlns="http://www.w3.org/2000/svg">
<mask id="path-1-inside-1" fill="white">
<path fill-rule="evenodd" clip-rule="evenodd" d="M19.2878 7C18.5035 7 17.7916 7.45841 17.4671 8.17239L15.7273 12H8C3.58172 12 0 15.5817 0 20V33C0 37.4183 3.58172 41 8 41H40C44.4183 41 48 37.4183 48 33V20C48 15.5817 44.4183 12 40 12H32.2727L30.5329 8.17239C30.2084 7.45841 29.4965 7 28.7122 7H23.75H19.2878Z"/>
</mask>
<path d="M17.4671 8.17239L14.736 6.93098L14.736 6.93099L17.4671 8.17239ZM15.7273 12V15H17.659L18.4584 13.2414L15.7273 12ZM32.2727 12L29.5416 13.2414L30.341 15H32.2727V12ZM30.5329 8.17239L27.8018 9.4138V9.4138L30.5329 8.17239ZM20.1982 9.41381C20.0359 9.7708 19.68 10 19.2878 10V4C17.3271 4 15.5473 5.14602 14.736 6.93098L20.1982 9.41381ZM18.4584 13.2414L20.1982 9.4138L14.736 6.93099L12.9962 10.7586L18.4584 13.2414ZM8 15H15.7273V9H8V15ZM3 20C3 17.2386 5.23858 15 8 15V9C1.92487 9 -3 13.9249 -3 20H3ZM3 33V20H-3V33H3ZM8 38C5.23858 38 3 35.7614 3 33H-3C-3 39.0751 1.92487 44 8 44V38ZM40 38H8V44H40V38ZM45 33C45 35.7614 42.7614 38 40 38V44C46.0751 44 51 39.0751 51 33H45ZM45 20V33H51V20H45ZM40 15C42.7614 15 45 17.2386 45 20H51C51 13.9249 46.0751 9 40 9V15ZM32.2727 15H40V9H32.2727V15ZM27.8018 9.4138L29.5416 13.2414L35.0038 10.7586L33.264 6.93099L27.8018 9.4138ZM28.7122 10C28.32 10 27.9641 9.7708 27.8018 9.4138L33.264 6.93099C32.4527 5.14601 30.6729 4 28.7122 4V10ZM23.75 10H28.7122V4H23.75V10ZM19.2878 10H23.75V4H19.2878V10Z" fill="#152C5B" mask="url(#path-1-inside-1)"/>
<circle cx="24" cy="26" r="6.5" stroke="#FF498B" stroke-width="3"/>
<path d="M40 19H35" stroke="#152C5B" stroke-width="3" stroke-linecap="round"/>
</svg>
